<svg xmlns="http://www.w3.org/2000/svg" width="376.121" height="186.543" viewBox="0 0 376.121 186.543">
  <g id="Grupo_112" data-name="Grupo 112" transform="translate(-10.296 -44.65)">
    <path id="Trazado_462" data-name="Trazado 462" d="M105.6,162.024h.064L127.735,141.2h6.746L111.1,162.221l24.684,25.341h-6.943l-23.179-24.687H105.6v24.687h-4.714V141.2H105.6Z" transform="translate(38.806 41.358)" fill="#717373"/>
    <path id="Trazado_463" data-name="Trazado 463" d="M130.451,187.562h-5.175l20.037-46.36H149.9l19.906,46.36h-5.241l-5.109-12.181H135.492Zm6.809-16.5h20.43l-10.214-24.62Z" transform="translate(49.252 41.358)" fill="#717373"/>
    <path id="Trazado_464" data-name="Trazado 464" d="M161.216,141.2h13.1a25.34,25.34,0,0,1,6.416.756,14.167,14.167,0,0,1,4.945,2.291,10.263,10.263,0,0,1,3.174,3.865,12.534,12.534,0,0,1,1.113,5.466,12.262,12.262,0,0,1-1.144,5.468,10.613,10.613,0,0,1-3.208,3.862,14.532,14.532,0,0,1-4.978,2.324,24.784,24.784,0,0,1-6.449.786H165.93v21.542h-4.714Zm4.714,20.823h7.989q5.566,0,8.449-2.158a7.373,7.373,0,0,0,2.88-6.286q0-4.324-2.98-6.322t-8.349-2H165.93Z" transform="translate(64.647 41.358)" fill="#717373"/>
    <rect id="Rectángulo_41" data-name="Rectángulo 41" width="4.714" height="46.36" transform="translate(263.838 182.561)" fill="#717373"/>
    <path id="Trazado_465" data-name="Trazado 465" d="M216.2,187.561h-4.714V145.393H195.964V141.2h35.752v4.191H216.2Z" transform="translate(79.531 41.358)" fill="#717373"/>
    <path id="Trazado_466" data-name="Trazado 466" d="M224.426,187.562h-5.175l20.04-46.36h4.581l19.907,46.36h-5.241l-5.106-12.181H229.467Zm6.809-16.5h20.43L241.45,146.44Z" transform="translate(89.506 41.358)" fill="#717373"/>
    <path id="Trazado_467" data-name="Trazado 467" d="M259.907,183.37h21.609v4.191H255.192V141.2h4.714Z" transform="translate(104.902 41.358)" fill="#717373"/>
    <path id="Trazado_468" data-name="Trazado 468" d="M47.443,188.472A26.07,26.07,0,0,1,36.5,190.639a28.558,28.558,0,0,1-10.421-1.855,24.042,24.042,0,0,1-13.789-13.415,28.508,28.508,0,0,1,.031-21.05,23.532,23.532,0,0,1,5.606-8.082,24.883,24.883,0,0,1,8.39-5.126,30.119,30.119,0,0,1,20.537.034,19.468,19.468,0,0,1,8.082,5.332l-7.979,7.98a9.875,9.875,0,0,0-4.335-3.371,14.34,14.34,0,0,0-5.5-1.1,13.862,13.862,0,0,0-5.673,1.137,13.243,13.243,0,0,0-4.438,3.128,14.2,14.2,0,0,0-2.89,4.714,16.541,16.541,0,0,0-1.034,5.948,17.02,17.02,0,0,0,1.034,6.053,14.107,14.107,0,0,0,2.852,4.714,12.764,12.764,0,0,0,4.369,3.06,13.855,13.855,0,0,0,5.573,1.1,12.952,12.952,0,0,0,6.12-1.378,11.849,11.849,0,0,0,4.2-3.575l8.184,7.7a23.2,23.2,0,0,1-7.977,5.881" transform="translate(0 40.554)" fill="#005fab"/>
    <rect id="Rectángulo_42" data-name="Rectángulo 42" width="11.832" height="48.705" transform="translate(60.443 181.182)" fill="#005fab"/>
    <path id="Trazado_469" data-name="Trazado 469" d="M106.186,164.451a23.987,23.987,0,0,1-2.371,11.041,22.317,22.317,0,0,1-6.26,7.636,26.033,26.033,0,0,1-8.77,4.4,35.449,35.449,0,0,1-9.906,1.414H60.72V140.238H78.329a43.44,43.44,0,0,1,10.18,1.206,25.609,25.609,0,0,1,8.946,3.989,20.419,20.419,0,0,1,6.326,7.463,25.068,25.068,0,0,1,2.405,11.555m-12.244,0a15.441,15.441,0,0,0-1.338-6.843,11.572,11.572,0,0,0-3.579-4.335,14.362,14.362,0,0,0-5.092-2.3,24.918,24.918,0,0,0-5.878-.688H72.207v28.48h5.572a25.239,25.239,0,0,0,6.088-.724,14.357,14.357,0,0,0,5.158-2.372,11.784,11.784,0,0,0,3.579-4.4,15.486,15.486,0,0,0,1.338-6.81" transform="translate(21.599 40.945)" fill="#005fab"/>
    <rect id="Rectángulo_43" data-name="Rectángulo 43" width="108.756" height="3.833" transform="translate(154.941 145.25)" fill="#005fab"/>
    <rect id="Rectángulo_44" data-name="Rectángulo 44" width="13.375" height="3.833" transform="translate(136.291 145.25)" fill="#005fab"/>
    <path id="Trazado_470" data-name="Trazado 470" d="M206.946,93.785c-.109-1.931-.578-3.809-.854-5.708L204.6,82.71a4.909,4.909,0,0,0,1.388-1.461,4.963,4.963,0,0,0-1.607-6.836L200.159,71.8l-2.614,4.224a4.943,4.943,0,0,0,5.086,7.483l1.16,5.029c.173,1.808.547,3.605.566,5.415a32.754,32.754,0,0,1-1.271,10.6,26.3,26.3,0,0,1-5.139,9.116,25.651,25.651,0,0,1-5.833,4.985C185.947,97.171,171.682,89.985,165,87.759l4.274-4.014.047-.751c.85-13.121-1.811-23.139-7.909-29.784C154.8,46,145.85,44.759,141.1,44.657c-9.27-.251-19.388,5.781-19.761,6l-10.094,5.631.106,1.231c.334,3.831.17,9.947.164,10.006l-.056,2.064,2.058-.1a19.7,19.7,0,0,1,5.1.287,47.905,47.905,0,0,0-4.895,24.086l.024.516,14.029,21.848c.523,1.784,3.7,13.1,2.82,22.188a11.971,11.971,0,0,0-8.756,8.149l-.843,2.514H146.55V125.789a16.192,16.192,0,0,0,7.246,5.463c9.251,3.557,12.741,6.193,13.944,7.32a21.089,21.089,0,0,0-8.526,7.622l-1.718,2.887h30.76V145.26H164.818c5.056-4.874,13.091-6.189,13.187-6.208l-.294-3.8a11.859,11.859,0,0,1-4.832-22.687l-1.561-3.491a15.644,15.644,0,0,0-6.752,22.824,81.415,81.415,0,0,0-9.4-4.218c-7.983-3.071-8.6-11.971-8.62-12.351l-1.908.107h-1.911V145.26H126.75a8.225,8.225,0,0,1,5.683-3.288l1.56-.086.226-1.548c1.607-10.878-2.674-24.886-2.852-25.476l-.059-.09v-17.9h-3.822v11.918l-9.96-15.6c-.491-14.249,5.342-23.141,5.4-23.231l.014-.02c1.8-2.73,3.561-5.072,5.121-7.142,3.665-4.855,6.082-8.063,4.012-10.674a4.872,4.872,0,0,0-1.935-1.391,30.062,30.062,0,0,1,10.881-2.25c4.138.087,11.925,1.153,17.58,7.315,5.253,5.726,7.593,14.539,6.956,26.2l-4.869,4.571a53.3,53.3,0,0,1-11.42.476l-.281,3.814c1.267.094,2.51.134,3.7.134a58.556,58.556,0,0,0,7.436-.487l.794.111c1.24.176,30.318,4.834,30.318,51.075h3.824a87.976,87.976,0,0,0-1.928-19.026,28.828,28.828,0,0,0,7.577-6.7,29.6,29.6,0,0,0,5.349-10.55,35.521,35.521,0,0,0,.887-11.627M125.01,60.492c-1.317,1.748-2.782,3.708-4.305,5.926a16.7,16.7,0,0,0-5.328-.781c.021-1.875.019-4.744-.124-7.2l7.68-4.286c2.425-.5,5.493-.481,6.059.136.034.89-2.191,3.838-3.982,6.209" transform="translate(43.243 0)" fill="#005fab"/>
  </g>
</svg>
