<svg xmlns="http://www.w3.org/2000/svg" width="295" height="277.276" viewBox="0 0 295 277.276">
  <g id="Grupo_101" data-name="Grupo 101" transform="translate(-46.747 -52.454)">
    <g id="Grupo_96" data-name="Grupo 96" transform="translate(46.747 205.938)">
      <path id="Trazado_352" data-name="Trazado 352" d="M58.9,207.718a5.706,5.706,0,0,1-6.075,6.075,6.989,6.989,0,0,1-2.955-.64c-1.359,3.837,4.955,5.994,8.712,5.994,8.792,0,8.792-12.069,8.792-18.942V154.729a2.476,2.476,0,0,0-2.638-2.637H61.773v-.8H79.516v53.148c0,9.031-7.594,15.505-19.181,15.505-5.435,0-13.266-1.44-13.588-11.828,0-3.837,2.078-6.474,6.073-6.474A5.7,5.7,0,0,1,58.9,207.718Z" transform="translate(-46.747 -151.293)" fill="#152623"/>
      <path id="Trazado_353" data-name="Trazado 353" d="M93.751,166.939v34.127c0,5.595,2.477,7.752,5.434,7.752,4.076,0,9.031-4.4,9.031-9.83V170.375a2.475,2.475,0,0,0-2.637-2.637H104.22v-.8h16.142v33.967c0,4.4,1.12,6.235,2.478,6.235.561,0,3.039-.48,3.039-6h.8c0,6.794-4.075,10.151-9.589,10.151-4.317,0-8.393-2.718-8.872-8.952C106.3,208.1,99.9,211.3,93.83,211.3c-6.393,0-12.31-3.517-12.31-11.269V170.375a2.475,2.475,0,0,0-2.637-2.637H77.525v-.8Z" transform="translate(-29.731 -142.643)" fill="#152623"/>
      <path id="Trazado_354" data-name="Trazado 354" d="M136.464,174.791a20.814,20.814,0,0,1,10.948,2.876V151.293h16.145v.8h-1.28a2.475,2.475,0,0,0-2.637,2.637v54.029c0,4.395,1.12,6.233,2.478,6.233.557,0,3.036-.48,3.036-5.994h.8c0,6.794-4.075,10.15-9.592,10.15a8.308,8.308,0,0,1-7.031-3.436,19.727,19.727,0,0,1-12.867,4.315c-9.434,0-19.822-5.354-19.822-22.7C116.642,180.145,127.031,174.791,136.464,174.791Zm3.836,44.038a13.5,13.5,0,0,0,8.629-3.756,12.113,12.113,0,0,1-1.517-6.314V178.467a12.949,12.949,0,0,0-7.033-2.478c-5.994,0-11.508,5.757-11.508,21.42S134.3,218.829,140.3,218.829Z" transform="translate(-8.104 -151.293)" fill="#152623"/>
      <path id="Trazado_355" data-name="Trazado 355" d="M155.861,188.963c0-17.184,10.389-22.538,19.822-22.538,12.628,0,19.9,9.031,19.9,21.259H168.09v1.359c0,10.15-.079,21.739,7.594,21.739,10.549,0,16.3-5.994,18.3-14.305l.8.158c-2.638,11.271-11.271,14.946-19.1,14.946C166.25,211.581,155.861,206.227,155.861,188.963Zm27.5-2.078c.079-5.834.318-19.662-7.673-19.662-7.115,0-7.594,10.07-7.594,19.662Z" transform="translate(13.579 -142.927)" fill="#152623"/>
      <path id="Trazado_356" data-name="Trazado 356" d="M209.676,166.939v.8h-1.037c-1.6,0-2.238.96-1.6,2.4l11.032,24.7,11.03-24.7c.638-1.438,0-2.4-1.6-2.4h-1.039v-.8h8.951v.8h-1.677a4.043,4.043,0,0,0-3.677,2.4L211.994,210.5h-.96l-18.063-40.361a4.037,4.037,0,0,0-3.677-2.4h-1.677v-.8Z" transform="translate(31.136 -142.643)" fill="#152623"/>
      <path id="Trazado_357" data-name="Trazado 357" d="M239.893,172.573v40.121a2.475,2.475,0,0,0,2.637,2.638h1.359v.8H223.748v-.8h1.359a2.476,2.476,0,0,0,2.637-2.638V176.009a2.475,2.475,0,0,0-2.637-2.637h-1.359v-.8Zm-15.425-4.716c4.474-2.4,12.147-6.632,16.063-11.108l2.637,6.073c-4.235,2.4-14.3,4.874-18.381,5.755Z" transform="translate(51.111 -148.277)" fill="#152623"/>
    </g>
    <g id="Grupo_97" data-name="Grupo 97" transform="translate(80.207 317.061)">
      <path id="Trazado_358" data-name="Trazado 358" d="M80.892,228.941v.1a1.059,1.059,0,0,1,.009.144,6.087,6.087,0,0,1-.851,3.163,6.468,6.468,0,0,1-2.283,2.283,6.312,6.312,0,0,1-6.336,0,6.451,6.451,0,0,1-2.286-2.283,6.312,6.312,0,0,1,0-6.336,6.426,6.426,0,0,1,2.286-2.283,6.325,6.325,0,0,1,5.46-.424,6.31,6.31,0,0,1,1.918,1.2l-1.325,1.315a4.492,4.492,0,0,0-1.321-.794,4.356,4.356,0,0,0-1.561-.284,4.293,4.293,0,0,0-2.238.6,4.532,4.532,0,0,0-1.606,1.606,4.469,4.469,0,0,0,0,4.466,4.532,4.532,0,0,0,1.606,1.606,4.291,4.291,0,0,0,2.238.6,4.243,4.243,0,0,0,2.5-.775,4.447,4.447,0,0,0,1.613-2.028H74.363v-1.87h6.53Z" transform="translate(-68.294 -222.841)" fill="#152623"/>
      <path id="Trazado_359" data-name="Trazado 359" d="M82.712,234.62a6.448,6.448,0,0,1-2.286-2.286,6.315,6.315,0,0,1,0-6.337,6.46,6.46,0,0,1,2.286-2.281,6.315,6.315,0,0,1,6.337,0A6.48,6.48,0,0,1,91.329,226a6.315,6.315,0,0,1,0,6.337,6.468,6.468,0,0,1-2.28,2.286,6.325,6.325,0,0,1-6.337,0Zm.941-9.289a4.531,4.531,0,0,0-1.609,1.6,4.425,4.425,0,0,0,0,4.458A4.608,4.608,0,0,0,83.653,233a4.435,4.435,0,0,0,4.458,0,4.587,4.587,0,0,0,1.606-1.612,4.465,4.465,0,0,0,0-4.458,4.511,4.511,0,0,0-1.606-1.6,4.455,4.455,0,0,0-4.458,0Z" transform="translate(-62.058 -222.847)" fill="#152623"/>
      <path id="Trazado_360" data-name="Trazado 360" d="M91.05,235.481V222.875h4.44a6.057,6.057,0,0,1,3.166.853,6.472,6.472,0,0,1,2.283,2.28,6.328,6.328,0,0,1,0,6.339,6.48,6.48,0,0,1-2.283,2.283,6.057,6.057,0,0,1-3.166.853Zm4.44-1.868a4.259,4.259,0,0,0,2.23-.6,4.565,4.565,0,0,0,1.606-1.609,4.462,4.462,0,0,0,0-4.457,4.544,4.544,0,0,0-1.606-1.606,4.285,4.285,0,0,0-2.23-.6H92.917v8.873Z" transform="translate(-55.713 -222.841)" fill="#152623"/>
      <path id="Trazado_361" data-name="Trazado 361" d="M101.061,235.481V222.875H105.5a6.065,6.065,0,0,1,3.166.853,6.468,6.468,0,0,1,2.281,2.28,6.328,6.328,0,0,1,0,6.339,6.476,6.476,0,0,1-2.281,2.283,6.065,6.065,0,0,1-3.166.853Zm4.441-1.868a4.253,4.253,0,0,0,2.228-.6,4.565,4.565,0,0,0,1.606-1.609,4.462,4.462,0,0,0,0-4.457,4.544,4.544,0,0,0-1.606-1.606,4.28,4.28,0,0,0-2.228-.6h-2.575v8.873Z" transform="translate(-50.178 -222.841)" fill="#152623"/>
      <path id="Trazado_362" data-name="Trazado 362" d="M120.356,224.74h-7.479v3.272h6.541v1.867h-6.541v3.735h7.479v1.868h-9.345V222.875h9.345Z" transform="translate(-44.677 -222.841)" fill="#152623"/>
      <path id="Trazado_363" data-name="Trazado 363" d="M126.155,228.541a4.548,4.548,0,0,1,2.284,1.267,3.054,3.054,0,0,1,.865,2.087v.061a2.966,2.966,0,0,1-.615,1.781A4.128,4.128,0,0,1,127.067,235a5.392,5.392,0,0,1-2.28.469h-.293a5.5,5.5,0,0,1-1.957-.342,4.54,4.54,0,0,1-1.572-.974,3.043,3.043,0,0,1-.991-2.211v-.387l1.929-.242v.638a1.081,1.081,0,0,0,.137.514,1.727,1.727,0,0,0,.284.373,3.159,3.159,0,0,0,2.169.764h.293a3.28,3.28,0,0,0,1.8-.48,1.486,1.486,0,0,0,.787-1.171V231.9a1.268,1.268,0,0,0-.467-.932,2.881,2.881,0,0,0-1.227-.616l-2.548-.629a4.573,4.573,0,0,1-2.275-1.258,3.043,3.043,0,0,1-.874-2.072,3.081,3.081,0,0,1,.981-2.219,4.506,4.506,0,0,1,1.575-.975,5.619,5.619,0,0,1,1.961-.342h.286a5.417,5.417,0,0,1,2.228.443,4.243,4.243,0,0,1,1.606,1.2,2.99,2.99,0,0,1,.674,1.7l-1.91.275-.009-.1a1.463,1.463,0,0,0-.787-1.158,3.306,3.306,0,0,0-1.8-.477H124.5a3.175,3.175,0,0,0-2.168.756,1.679,1.679,0,0,0-.284.371,1.109,1.109,0,0,0-.137.523,1.3,1.3,0,0,0,.477.926,2.784,2.784,0,0,0,1.217.607Z" transform="translate(-39.721 -222.853)" fill="#152623"/>
      <path id="Trazado_364" data-name="Trazado 364" d="M135.556,228.541a4.553,4.553,0,0,1,2.286,1.267,3.055,3.055,0,0,1,.865,2.087v.061a2.969,2.969,0,0,1-.618,1.781A4.112,4.112,0,0,1,136.467,235a5.387,5.387,0,0,1-2.28.469h-.294a5.51,5.51,0,0,1-1.957-.342,4.533,4.533,0,0,1-1.57-.974,3.043,3.043,0,0,1-.991-2.211v-.387l1.927-.242v.638a1.082,1.082,0,0,0,.138.514,1.728,1.728,0,0,0,.284.373,3.155,3.155,0,0,0,2.168.764h.294a3.282,3.282,0,0,0,1.8-.48,1.49,1.49,0,0,0,.787-1.171V231.9a1.27,1.27,0,0,0-.469-.932,2.866,2.866,0,0,0-1.225-.616l-2.548-.629a4.574,4.574,0,0,1-2.275-1.258,3.036,3.036,0,0,1-.874-2.072,3.081,3.081,0,0,1,.981-2.219,4.5,4.5,0,0,1,1.573-.975,5.628,5.628,0,0,1,1.963-.342h.284a5.407,5.407,0,0,1,2.228.443,4.231,4.231,0,0,1,1.606,1.2,3.017,3.017,0,0,1,.679,1.7l-1.913.275-.009-.1a1.467,1.467,0,0,0-.787-1.158,3.307,3.307,0,0,0-1.8-.477H133.9a3.173,3.173,0,0,0-2.168.756,1.633,1.633,0,0,0-.284.371,1.091,1.091,0,0,0-.138.523,1.3,1.3,0,0,0,.478.926,2.784,2.784,0,0,0,1.217.607Z" transform="translate(-34.523 -222.853)" fill="#152623"/>
      <path id="Trazado_365" data-name="Trazado 365" d="M146.223,234.62a6.477,6.477,0,0,1-2.283-2.286,6.315,6.315,0,0,1,0-6.337,6.489,6.489,0,0,1,2.283-2.281,6.318,6.318,0,0,1,6.339,0,6.455,6.455,0,0,1,2.28,2.281,6.315,6.315,0,0,1,0,6.337,6.443,6.443,0,0,1-2.28,2.286,6.328,6.328,0,0,1-6.339,0Zm.944-9.289a4.544,4.544,0,0,0-1.609,1.6,4.435,4.435,0,0,0,0,4.458A4.622,4.622,0,0,0,147.167,233a4.432,4.432,0,0,0,4.457,0,4.574,4.574,0,0,0,1.606-1.612,4.445,4.445,0,0,0,0-4.458,4.5,4.5,0,0,0-1.606-1.6,4.452,4.452,0,0,0-4.457,0Z" transform="translate(-26.943 -222.847)" fill="#152623"/>
      <path id="Trazado_366" data-name="Trazado 366" d="M164.018,224.74h-7.472v3.272h6.541v1.867h-6.541v5.6h-1.865V222.875h9.337Z" transform="translate(-20.533 -222.841)" fill="#152623"/>
      <path id="Trazado_367" data-name="Trazado 367" d="M172.649,235.5v-5.794l-4.368-6.817H170.5l3.087,4.812,3.09-4.812h2.145l.051.047-4.354,6.771V235.5Z" transform="translate(-13.014 -222.833)" fill="#152623"/>
      <path id="Trazado_368" data-name="Trazado 368" d="M180.1,234.62a6.477,6.477,0,0,1-2.283-2.286,6.315,6.315,0,0,1,0-6.337,6.489,6.489,0,0,1,2.283-2.281,6.318,6.318,0,0,1,6.339,0,6.455,6.455,0,0,1,2.28,2.281,6.315,6.315,0,0,1,0,6.337,6.443,6.443,0,0,1-2.28,2.286,6.328,6.328,0,0,1-6.339,0Zm.944-9.289a4.531,4.531,0,0,0-1.609,1.6,4.425,4.425,0,0,0,0,4.458A4.608,4.608,0,0,0,181.047,233a4.432,4.432,0,0,0,4.457,0,4.587,4.587,0,0,0,1.606-1.612,4.455,4.455,0,0,0,0-4.458,4.51,4.51,0,0,0-1.606-1.6,4.452,4.452,0,0,0-4.457,0Z" transform="translate(-8.212 -222.847)" fill="#152623"/>
      <path id="Trazado_369" data-name="Trazado 369" d="M190.964,234.772a5.192,5.192,0,0,1-1.857-1.857,4.953,4.953,0,0,1-.693-2.586v-7.472h1.865v7.472a3.147,3.147,0,0,0,.446,1.646,3.324,3.324,0,0,0,1.182,1.185,3.3,3.3,0,0,0,3.287,0,3.323,3.323,0,0,0,1.182-1.185,3.147,3.147,0,0,0,.446-1.646v-7.472h1.868v7.472a4.929,4.929,0,0,1-.7,2.586,5.266,5.266,0,0,1-1.862,1.857,5.161,5.161,0,0,1-5.165,0Z" transform="translate(-1.883 -222.851)" fill="#152623"/>
      <path id="Trazado_370" data-name="Trazado 370" d="M208.628,222.853v1.876h-4.21v10.738h-1.865V224.729h-4.2v-1.876Z" transform="translate(3.612 -222.853)" fill="#152623"/>
      <path id="Trazado_371" data-name="Trazado 371" d="M216.96,222.875h1.868v12.606H216.96v-5.6H210.42v5.6h-1.867V222.875h1.867v5.137h6.541Z" transform="translate(9.251 -222.841)" fill="#152623"/>
    </g>
    <g id="Grupo_99" data-name="Grupo 99" transform="translate(58.898 52.454)">
      <g id="Grupo_98" data-name="Grupo 98">
        <path id="Trazado_372" data-name="Trazado 372" d="M64.891,73.383l1.578.745A6.511,6.511,0,0,1,65,75.972a6.664,6.664,0,0,1-2.141,1.245,6.438,6.438,0,0,1-3.272.318,6.232,6.232,0,0,1-2.881-1.242,5.576,5.576,0,0,1-2-5.592,6.323,6.323,0,0,1,1.44-2.786,6.483,6.483,0,0,1,2.736-1.822,6.4,6.4,0,0,1,2.169-.4A6.548,6.548,0,0,1,63.135,66l-.7,1.621a4.979,4.979,0,0,0-4.946,1.422,4.514,4.514,0,0,0-1.058,1.977,3.821,3.821,0,0,0,1.405,3.93,4.512,4.512,0,0,0,2.073.862,4.774,4.774,0,0,0,2.362-.245,4.856,4.856,0,0,0,2.617-2.185Z" transform="translate(-54.572 -45.134)" fill="#152623"/>
        <path id="Trazado_373" data-name="Trazado 373" d="M75.57,73.082l-2.113.646-4.044-2.887-2.522.77,1.154,3.769-1.674.512-1.152-3.77-2.3-7.535,1.674-.512,2.929-.894a3.828,3.828,0,0,1,2.054-.073,4.043,4.043,0,0,1,1.781.952,3.935,3.935,0,0,1,1.092,4.023A4.008,4.008,0,0,1,71.2,69.962ZM65.1,65.757l1.275,4.18,2.932-.894A2.129,2.129,0,0,0,70.6,67.975a2.167,2.167,0,0,0-.9-2.952,2.119,2.119,0,0,0-1.669-.162Z" transform="translate(-49.958 -46.623)" fill="#152623"/>
        <path id="Trazado_374" data-name="Trazado 374" d="M80.857,61.635l-6.78,1.77.773,2.963,5.929-1.548.443,1.693-5.929,1.548.882,3.387,6.78-1.77.441,1.694-6.778,1.77-.843.217-.851.222L71.942,62.151l.851-.222.843-.217,6.778-1.77Z" transform="translate(-44.968 -48.315)" fill="#152623"/>
        <path id="Trazado_375" data-name="Trazado 375" d="M89.723,58.032l1.837-.4,2.511,11.544-1.711.37L90.573,61.33l-2.331,7.834L82.875,63l1.789,8.216-1.71.374L80.442,60.052l1.829-.4,5.2,5.968Z" transform="translate(-40.269 -49.591)" fill="#152623"/>
        <path id="Trazado_376" data-name="Trazado 376" d="M93.99,68.782l-1.916.328,3.632-12.6,1.915-.328,7.544,10.7-1.915.328-1.944-2.763-6.382,1.093Zm2.93-10.429-1.537,5.326,4.73-.807Z" transform="translate(-33.838 -50.395)" fill="#152623"/>
        <path id="Trazado_377" data-name="Trazado 377" d="M115.486,55.665l-6.952.794.346,3.045,6.09-.7.2,1.738-6.089.7.6,5.216-1.741.2L106.6,54.92l.865-.1.873-.1,6.955-.8Z" transform="translate(-25.809 -51.642)" fill="#152623"/>
        <path id="Trazado_378" data-name="Trazado 378" d="M115.671,65.655l-1.935.16,4.685-12.247,1.936-.166,6.611,11.3-1.935.161-1.7-2.915-6.451.548Zm3.8-10.148-1.981,5.176,4.781-.4Z" transform="translate(-21.861 -51.93)" fill="#152623"/>
        <path id="Trazado_379" data-name="Trazado 379" d="M133.716,61.487l1.292,1.172a6.7,6.7,0,0,1-7.572,1.266,6.3,6.3,0,0,1-2.4-2.028,5.582,5.582,0,0,1-.289-5.93,6.271,6.271,0,0,1,2.188-2.245,6.482,6.482,0,0,1,3.146-.955,6.628,6.628,0,0,1,2.191.25,6.545,6.545,0,0,1,1.9.9l-1.137,1.349a4.761,4.761,0,0,0-1.337-.592,4.89,4.89,0,0,0-1.533-.157,4.764,4.764,0,0,0-2.277.672,4.5,4.5,0,0,0-1.587,1.581,3.831,3.831,0,0,0,.2,4.173,4.557,4.557,0,0,0,1.735,1.427,4.8,4.8,0,0,0,2.329.452,4.852,4.852,0,0,0,1.736-.4A4.706,4.706,0,0,0,133.716,61.487Z" transform="translate(-16.168 -52.286)" fill="#152623"/>
        <path id="Trazado_380" data-name="Trazado 380" d="M133.95,64.362l-.284-11.816,1.749-.04.284,11.816Z" transform="translate(-10.843 -52.425)" fill="#152623"/>
        <path id="Trazado_381" data-name="Trazado 381" d="M139.845,64.231l-1.943-.017,5.8-11.76,1.944.016,5.533,11.861-1.943-.016-1.426-3.061-6.475-.056Zm4.73-9.746-2.454,4.968,4.8.043Z" transform="translate(-8.501 -52.454)" fill="#152623"/>
        <path id="Trazado_382" data-name="Trazado 382" d="M148.976,64.345l.45-11.813,1.747.064-.382,10.055,6.994.27-.068,1.755Z" transform="translate(-2.378 -52.411)" fill="#152623"/>
        <path id="Trazado_383" data-name="Trazado 383" d="M161.609,64.988l1.016-11.768,4.146.354a5.72,5.72,0,0,1,2.887,1.053,6.09,6.09,0,0,1,1.946,2.314,5.912,5.912,0,0,1-.512,5.915,6.083,6.083,0,0,1-2.312,1.95,5.7,5.7,0,0,1-3.025.54Zm4.3-1.387a3.948,3.948,0,0,0,2.129-.384,4.283,4.283,0,0,0,1.629-1.37,4.172,4.172,0,0,0,.359-4.162,4.256,4.256,0,0,0-1.37-1.629,4,4,0,0,0-2.031-.738l-2.4-.21L163.5,63.4Z" transform="translate(4.606 -52.03)" fill="#152623"/>
        <path id="Trazado_384" data-name="Trazado 384" d="M180.77,56.881l-6.955-.839-.365,3.044,6.083.735-.21,1.738-6.083-.735-.419,3.475,6.955.835-.21,1.738-6.955-.839-.865-.1-.871-.106L172.287,54.1l.873.1.865.106,6.955.834Z" transform="translate(9.729 -51.544)" fill="#152623"/>
        <path id="Trazado_385" data-name="Trazado 385" d="M192.92,69.106l-1.9-.328-4.346-9.809-1.517,8.8-1.727-.3,2.011-11.639,1.9.326,4.348,9.8,1.516-8.789,1.724.3Z" transform="translate(16.67 -50.588)" fill="#152623"/>
        <path id="Trazado_386" data-name="Trazado 386" d="M195.429,68.552a6.059,6.059,0,0,1-1.638-2.545,5.92,5.92,0,0,1,1.258-5.8,6.056,6.056,0,0,1,2.544-1.637,5.934,5.934,0,0,1,5.8,1.258,6.094,6.094,0,0,1,1.637,2.539,5.928,5.928,0,0,1-1.258,5.806,6.05,6.05,0,0,1-2.542,1.641,5.921,5.921,0,0,1-5.8-1.258Zm2.707-8.322a4.283,4.283,0,0,0-1.792,1.152,4.139,4.139,0,0,0-.884,4.081,4.319,4.319,0,0,0,1.152,1.794,4.156,4.156,0,0,0,4.082.884,4.3,4.3,0,0,0,1.79-1.154,4.176,4.176,0,0,0,.884-4.084,4.219,4.219,0,0,0-1.152-1.786,3.992,3.992,0,0,0-1.921-.992A4.035,4.035,0,0,0,198.136,60.23Z" transform="translate(22.237 -49.236)" fill="#152623"/>
        <path id="Trazado_387" data-name="Trazado 387" d="M223.385,64.9l1.672.519L221.543,76.7l-1.671-.52,1.562-5.011-5.853-1.822-1.559,5.011-1.672-.52,3.514-11.277,1.671.52-1.43,4.6,5.85,1.822Z" transform="translate(32.659 -46.866)" fill="#152623"/>
        <path id="Trazado_388" data-name="Trazado 388" d="M232.66,70.058l-6.59-2.382-1.042,2.882,5.763,2.084-.595,1.646L224.433,72.2l-1.189,3.3,6.59,2.377-.595,1.646-6.59-2.379-.82-.3-.826-.3,4.014-11.108.828.3.82.293,6.59,2.384Z" transform="translate(37.443 -45.276)" fill="#152623"/>
      </g>
      <path id="Trazado_389" data-name="Trazado 389" d="M211.923,71.366a5.813,5.813,0,0,1-3.339-10.577,6.506,6.506,0,1,0,6.716,9.48A5.778,5.778,0,0,1,211.923,71.366Z" transform="translate(27.505 -47.846)" fill="#152623"/>
    </g>
    <g id="Grupo_100" data-name="Grupo 100" transform="translate(144.467 94.197)">
      <path id="Trazado_390" data-name="Trazado 390" d="M167.07,80.921a.718.718,0,0,0-.714.651l-.761,7.6a.558.558,0,0,0,.5.609l7.5.745a.746.746,0,0,0,.686-.593.607.607,0,0,0-.093-.464.551.551,0,0,0-.391-.208l-6.884-.682.7-7.036a.555.555,0,0,0-.146-.447A.545.545,0,0,0,167.07,80.921Z" transform="translate(-78.761 -78.458)" fill="#152623"/>
      <path id="Trazado_391" data-name="Trazado 391" d="M169.845,79.335a.769.769,0,0,0-.745.613l-1,6.823a.546.546,0,0,0,.12.452.5.5,0,0,0,.387.194l6.816.343a.755.755,0,0,0,.688-.62.552.552,0,0,0-.124-.453.512.512,0,0,0-.4-.193l-6.145-.307.031-.234.874-5.968a.539.539,0,0,0-.115-.453A.516.516,0,0,0,169.845,79.335Z" transform="translate(-77.38 -79.335)" fill="#152623"/>
      <path id="Trazado_392" data-name="Trazado 392" d="M171.775,83.608l3.423-2.859a.663.663,0,0,0,.14-.9.551.551,0,0,0-.374-.193.361.361,0,0,0-.068,0h-.016a.727.727,0,0,0-.443.166l-3.412,2.859a.648.648,0,0,0-.135.891.528.528,0,0,0,.433.213A.8.8,0,0,0,171.775,83.608Z" transform="translate(-75.9 -79.161)" fill="#152623"/>
      <path id="Trazado_393" data-name="Trazado 393" d="M163.666,112.977a.556.556,0,0,0,.567.453.55.55,0,0,0,.152-.026l3.062-.843a.71.71,0,0,0,.52-.792.532.532,0,0,0-.25-.374.477.477,0,0,0-.447-.057l-.073.009-3,.834A.716.716,0,0,0,163.666,112.977Z" transform="translate(-79.831 -61.661)" fill="#152623"/>
      <path id="Trazado_394" data-name="Trazado 394" d="M160.844,109.783l.2.056a.577.577,0,0,0,.157.022.739.739,0,0,0,.677-.469.641.641,0,0,0-.02-.5.5.5,0,0,0-.323-.27L149.7,105.19l-.031-.314-.921-12.327a.527.527,0,0,0-.2-.385.479.479,0,0,0-.447-.12.721.721,0,0,0-.615.75l.974,13.024a.554.554,0,0,0,.4.491l.2.057Z" transform="translate(-88.773 -72.318)" fill="#152623"/>
      <path id="Trazado_395" data-name="Trazado 395" d="M163.578,106.108a.47.47,0,0,0-.323-.255l-11.143-3.042-.011-.334-.7-11.513a.488.488,0,0,0-.183-.371.6.6,0,0,0-.474-.14.717.717,0,0,0-.609.739l.739,12.249a.54.54,0,0,0,.4.5l11.508,3.129a.5.5,0,0,0,.146.022.73.73,0,0,0,.677-.484A.636.636,0,0,0,163.578,106.108Z" transform="translate(-87.306 -73.19)" fill="#152623"/>
      <path id="Trazado_396" data-name="Trazado 396" d="M165.309,103.357a.5.5,0,0,0-.334-.266l-10.446-2.64-.011-.349-.458-10.707a.5.5,0,0,0-.2-.407.437.437,0,0,0-.411-.12.753.753,0,0,0-.655.735l.489,11.468a.541.541,0,0,0,.4.509l10.837,2.739a.5.5,0,0,0,.141.022.752.752,0,0,0,.686-.5A.575.575,0,0,0,165.309,103.357Z" transform="translate(-85.837 -74.074)" fill="#152623"/>
      <path id="Trazado_397" data-name="Trazado 397" d="M155.453,88l.239,10.691a.525.525,0,0,0,.422.531l10.134,2.328a.509.509,0,0,0,.151.026.739.739,0,0,0,.672-.511.606.606,0,0,0-.042-.489.512.512,0,0,0-.348-.256l-9.733-2.239-.006-.166-.224-10.1a.555.555,0,0,0-.551-.547c-.026,0-.048,0-.073,0A.734.734,0,0,0,155.453,88Z" transform="translate(-84.367 -74.95)" fill="#152623"/>
      <path id="Trazado_398" data-name="Trazado 398" d="M159.225,85.854a.7.7,0,0,0-.464-.168.732.732,0,0,0-.646.71l-.016,9.915a.553.553,0,0,0,.449.551l9.466,1.932a.541.541,0,0,0,.126.017.752.752,0,0,0,.677-.526.636.636,0,0,0-.057-.489.5.5,0,0,0-.349-.241l-9.041-1.848.011-9.463A.552.552,0,0,0,159.225,85.854Z" transform="translate(-82.904 -75.824)" fill="#152623"/>
      <path id="Trazado_399" data-name="Trazado 399" d="M161.6,84.1h-.084a.725.725,0,0,0-.651.693l-.266,9.145a.551.551,0,0,0,.458.567l8.775,1.531a.445.445,0,0,0,.12.016.772.772,0,0,0,.7-.551.658.658,0,0,0-.078-.48.588.588,0,0,0-.36-.228l-8.326-1.458v-.391l.239-8.269a.544.544,0,0,0-.161-.453A.527.527,0,0,0,161.6,84.1Z" transform="translate(-81.522 -76.702)" fill="#152623"/>
      <path id="Trazado_400" data-name="Trazado 400" d="M172.459,92.725a.548.548,0,0,0-.078-.463.513.513,0,0,0-.376-.234L164.4,90.955l.011-.193.464-7.656a.53.53,0,0,0-.152-.427.6.6,0,0,0-.363-.172.59.59,0,0,1-.146.006.682.682,0,0,0-.6.671l-.506,8.375a.542.542,0,0,0,.469.582l8.125,1.141.071.216h0l-.011-.211A.77.77,0,0,0,172.459,92.725Z" transform="translate(-80.14 -77.581)" fill="#152623"/>
      <path id="Trazado_401" data-name="Trazado 401" d="M150.486,111.6l-3.468,8.266a.588.588,0,0,0,.115.666l5.952,5.593a.536.536,0,0,0,.39.155.726.726,0,0,0,.506-.234.716.716,0,0,0,.2-.489.573.573,0,0,0-.171-.4l-5.671-5.328,3.3-7.864a.6.6,0,0,0,0-.494.509.509,0,0,0-.317-.287A.68.68,0,0,0,150.486,111.6Z" transform="translate(-89.06 -61.75)" fill="#152623"/>
      <path id="Trazado_402" data-name="Trazado 402" d="M153.877,110.859a.739.739,0,0,0-.651.436l-3.343,7.483a.605.605,0,0,0,.13.7l5.572,4.947a.537.537,0,0,0,.359.146l.048-.006a.668.668,0,0,0,.483-.234.676.676,0,0,0,.188-.5v-.011a.553.553,0,0,0-.177-.38l-5.264-4.68.124-.3,3.027-6.76a.636.636,0,0,0,.016-.5.515.515,0,0,0-.307-.287A.646.646,0,0,0,153.877,110.859Z" transform="translate(-87.478 -61.906)" fill="#152623"/>
      <path id="Trazado_403" data-name="Trazado 403" d="M152.878,118.413l5.2,4.317a.667.667,0,0,0,.9-.124.729.729,0,0,0,.172-.506.561.561,0,0,0-.193-.385l-4.865-4.041,3-6.25a.654.654,0,0,0,.031-.5.515.515,0,0,0-.29-.3.729.729,0,0,0-.87.374l-3.214,6.693A.618.618,0,0,0,152.878,118.413Z" transform="translate(-85.894 -62.061)" fill="#152623"/>
      <path id="Trazado_404" data-name="Trazado 404" d="M159.347,110.288a.71.71,0,0,0-.613.391l-.006,0-3.1,5.912a.58.58,0,0,0,.13.75l4.826,3.7a.643.643,0,0,0,.9-.161.666.666,0,0,0,.151-.506.5.5,0,0,0-.193-.363l-4.457-3.407.082-.162,2.766-5.28a.672.672,0,0,0,.047-.511.575.575,0,0,0-.286-.312A.549.549,0,0,0,159.347,110.288Z" transform="translate(-84.314 -62.222)" fill="#152623"/>
      <path id="Trazado_405" data-name="Trazado 405" d="M161.467,110.376l-2.958,5.114a.6.6,0,0,0,.135.807l4.447,3.062a.618.618,0,0,0,.328.093.752.752,0,0,0,.573-.3.66.66,0,0,0,.13-.511.538.538,0,0,0-.224-.359l-4.02-2.761,2.671-4.618a.677.677,0,0,0,.068-.506.521.521,0,0,0-.272-.332A.721.721,0,0,0,161.467,110.376Z" transform="translate(-82.73 -62.377)" fill="#152623"/>
      <path id="Trazado_406" data-name="Trazado 406" d="M164.222,110.046l-2.832,4.339a.619.619,0,0,0-.1.458.536.536,0,0,0,.25.4l4.083,2.427a.583.583,0,0,0,.281.073.751.751,0,0,0,.6-.334.675.675,0,0,0,.1-.511.543.543,0,0,0-.25-.339l-3.572-2.129.124-.183,2.354-3.6a.72.72,0,0,0,.1-.52.556.556,0,0,0-.245-.334A.723.723,0,0,0,164.222,110.046Z" transform="translate(-81.148 -62.531)" fill="#152623"/>
      <path id="Trazado_407" data-name="Trazado 407" d="M127.044,121.936a.668.668,0,0,0,.186-.245.491.491,0,0,0,0-.219l-.025-.113h0l-1.228-6.37a.442.442,0,0,0-.172-.255.532.532,0,0,0-.25-.062.467.467,0,0,0-.135.02.522.522,0,0,0-.38.593l1.193,6.171-.214.177-5.061,4.115a.559.559,0,0,0-.2.374.383.383,0,0,0,.084.292.479.479,0,0,0,.662.047Z" transform="translate(-103.55 -59.798)" fill="#152623"/>
      <path id="Trazado_408" data-name="Trazado 408" d="M144.144,120.94a.577.577,0,0,0,.115.635l6.333,6.244a.57.57,0,0,0,.4.155.722.722,0,0,0,.5-.217.647.647,0,0,0,.047-.9l-6.062-5.969,3.447-8.66a.6.6,0,0,0-.009-.494.507.507,0,0,0-.329-.281.536.536,0,0,0-.155-.022.767.767,0,0,0-.683.458Z" transform="translate(-90.644 -61.588)" fill="#152623"/>
      <path id="Trazado_409" data-name="Trazado 409" d="M124.943,121.195a.54.54,0,0,0,.2-.516l-1.281-5.916a.371.371,0,0,0-.183-.255.383.383,0,0,0-.213-.068.659.659,0,0,0-.157.026.558.558,0,0,0-.374.609l1.208,5.6-.219.182-4.662,3.646a.509.509,0,0,0-.129.677.483.483,0,0,0,.662.04Z" transform="translate(-104.491 -59.927)" fill="#152623"/>
      <path id="Trazado_410" data-name="Trazado 410" d="M122.842,120.416a.517.517,0,0,0,.219-.526l0-.057-1.3-5.306a.426.426,0,0,0-.2-.261.393.393,0,0,0-.193-.047.45.45,0,0,0-.146.026.546.546,0,0,0-.385.62l1.224,5.03-.234.183-4.255,3.182a.491.491,0,0,0-.151.662.484.484,0,0,0,.655.078Z" transform="translate(-105.437 -60.049)" fill="#152623"/>
      <path id="Trazado_411" data-name="Trazado 411" d="M120.755,119.647a.5.5,0,0,0,.224-.547l-.011-.036-1.317-4.777a.368.368,0,0,0-.188-.234.442.442,0,0,0-.219-.056.606.606,0,0,0-.177.031.544.544,0,0,0-.334.613l1.235,4.463-.259.193-3.834,2.708a.5.5,0,0,0-.171.668.494.494,0,0,0,.655.089Z" transform="translate(-106.38 -60.171)" fill="#152623"/>
      <path id="Trazado_412" data-name="Trazado 412" d="M118.668,118.876a.522.522,0,0,0,.228-.578v0l-1.359-4.244a.393.393,0,0,0-.208-.241.54.54,0,0,0-.188-.036.61.61,0,0,0-.2.042.533.533,0,0,0-.312.635l1.239,3.879-3.687,2.422a.53.53,0,0,0-.188.686.512.512,0,0,0,.646.095Z" transform="translate(-107.323 -60.295)" fill="#152623"/>
      <path id="Trazado_413" data-name="Trazado 413" d="M112.675,120.378a.523.523,0,0,0,.228-.073l3.662-2.193a.546.546,0,0,0,.25-.62L115.43,113.8a.379.379,0,0,0-.214-.217.438.438,0,0,0-.193-.042.386.386,0,0,0-.171.042.533.533,0,0,0-.323.651l1.233,3.306-.151.089L112.5,119.5a.521.521,0,0,0-.234.662.4.4,0,0,0,.349.214Z" transform="translate(-108.267 -60.421)" fill="#152623"/>
      <path id="Trazado_414" data-name="Trazado 414" d="M110.555,118.9a.4.4,0,0,0,.38.23,1.093,1.093,0,0,0,.255-.062l3.27-1.73a.635.635,0,0,0,.266-.3.5.5,0,0,0,0-.359l-1.421-3.124a.345.345,0,0,0-.225-.208.351.351,0,0,0-.151-.026.654.654,0,0,0-.261.062.532.532,0,0,0-.239.657l1.23,2.7-2.843,1.5A.532.532,0,0,0,110.555,118.9Z" transform="translate(-109.21 -60.542)" fill="#152623"/>
      <path id="Trazado_415" data-name="Trazado 415" d="M112.661,115.3a.381.381,0,0,0-.244-.208l-2.078-.62c-.016,0-.057-.011-.1-.011a.611.611,0,0,0-.537.36.5.5,0,0,0,.016.363.41.41,0,0,0,.245.21l2.093.624c.016,0,.062.011.1.011h.016a.572.572,0,0,0,.5-.349A.481.481,0,0,0,112.661,115.3Z" transform="translate(-109.676 -59.915)" fill="#152623"/>
      <path id="Trazado_416" data-name="Trazado 416" d="M172.494,111.653a.514.514,0,0,0-.318-.27l-11.962-3.651.5-.542c.053-.057.1-.12.162-.188.073-.089.146-.171.219-.25a.732.732,0,0,0,.2-.509.543.543,0,0,0-.177-.38.621.621,0,0,0-.86.084l-.693.713-1.113-12.535a.589.589,0,0,0-.23-.407.574.574,0,0,0-.411-.093.74.74,0,0,0-.624.766L158.4,108.05l-.124.144a81.606,81.606,0,0,0-7.989,11.16l-.666,1.115-.188-1.286a20.316,20.316,0,0,0-3.047-8.01l-.109-.161.057-.188a29.557,29.557,0,0,0,.478-9.421l-.036-.339.312-.14a4.022,4.022,0,0,0,2.531-3.458A3.2,3.2,0,0,0,148.7,95a3.122,3.122,0,0,0-2.474-.927,4.066,4.066,0,0,0-3.775,3.777,3.048,3.048,0,0,0,2.7,3.3l.339.047.04.343a27.617,27.617,0,0,1-.073,7.052l-.155,1.078-.662-.859a33.578,33.578,0,0,0-4.058-4.333l-.259-.23.151-.318a3.757,3.757,0,0,0,.438-1.52A3.172,3.172,0,0,0,137.7,99l-.161.006a4.065,4.065,0,0,0-3.786,3.78,3.227,3.227,0,0,0,.916,2.469,3.176,3.176,0,0,0,2.474.922,3.859,3.859,0,0,0,1.974-.756l.3-.2.266.233a27.236,27.236,0,0,1,7.3,9.879l.2.485-.516.13a9.9,9.9,0,0,1-4.3-.157l-.418-.089.048-.416c.016-.062.025-.115.036-.157a3.152,3.152,0,0,0-3.2-3.426l-.182,0a4.068,4.068,0,0,0-3.77,3.775,3.163,3.163,0,0,0,3.218,3.4l.162,0a3.931,3.931,0,0,0,2.989-1.745l.182-.244.292.067a14.594,14.594,0,0,0,3.124.469c.172,0,.339,0,.516-.016a7.008,7.008,0,0,0,1.781-.312l.453-.141.12.464a13.423,13.423,0,0,1,.516,5.4l-.051.208a120.946,120.946,0,0,0-7.609,17.347l-.3.854-.516-.75a16.782,16.782,0,0,0-8.359-6.114l-.036-.009-2.115-.677-.047-.287-1.115-6.4a.407.407,0,0,0-.182-.276.467.467,0,0,0-.349-.042.541.541,0,0,0-.405.6l1.078,6.191-.307-.062c-.825-.186-1.441.938-.064,1.093l-5.191,4.27a.449.449,0,1,0,.557.693l5.593-4.578.1-.073c.148.045.287.085.439.134,3.494,1.219,7.921,3.109,10.241,7.881l.078.168-.057.177a123.272,123.272,0,0,0-4,15.148l-.016.079a.56.56,0,0,0,.113.447.519.519,0,0,0,.412.208h.068a.717.717,0,0,0,.651-.593,128.109,128.109,0,0,1,5.791-20.226l.022-.048.115-.151a36.452,36.452,0,0,1,8.9-5.067l.276-.115.217.208,6.312,6.458a.529.529,0,0,0,.4.177.738.738,0,0,0,.494-.208.637.637,0,0,0,.068-.9l-6.118-6.275.932-.312a1.009,1.009,0,0,1,.146-.053.711.711,0,0,0,.474-.817.507.507,0,0,0-.25-.339.586.586,0,0,0-.427-.022l-.823.188,3.2-8.441a.641.641,0,0,0-.016-.5.554.554,0,0,0-.328-.272.712.712,0,0,0-.834.453l-3.562,9.395-.182.078a40.95,40.95,0,0,0-6.937,3.537l-1.213.766.542-1.334a93.49,93.49,0,0,1,15.075-25.6l.2-.224.281.089,12.086,3.693a.611.611,0,0,0,.172.02.747.747,0,0,0,.662-.469A.642.642,0,0,0,172.494,111.653Zm-35.267-6.738h-.02a2.244,2.244,0,0,1-1.593-.61,2.081,2.081,0,0,1-.6-1.609,2.6,2.6,0,0,1,2.416-2.421h.115a2.09,2.09,0,0,1,1.5.6,2.125,2.125,0,0,1,.615,1.613A2.617,2.617,0,0,1,137.227,104.915Zm8.6-4.938h0a2.079,2.079,0,0,1-2.109-2.224,2.6,2.6,0,0,1,2.416-2.416l.109,0a2.074,2.074,0,0,1,1.506.609,2.123,2.123,0,0,1,.613,1.615,2.608,2.608,0,0,1-2.432,2.416Zm-7.468,17.639h-.113a2.08,2.08,0,0,1-2.115-2.224,2.614,2.614,0,0,1,2.427-2.416l.1,0a2.089,2.089,0,0,1,2.12,2.224A2.613,2.613,0,0,1,138.362,117.616Z" transform="translate(-102.605 -71.44)" fill="#152623"/>
    </g>
  </g>
</svg>
