<svg xmlns="http://www.w3.org/2000/svg" width="398.608" height="139.165" viewBox="0 0 398.608 139.165">
  <g id="Grupo_110" data-name="Grupo 110" transform="translate(-11.038 -96.522)">
    <g id="Grupo_108" data-name="Grupo 108" transform="translate(120.694 215.149)">
      <path id="Trazado_445" data-name="Trazado 445" d="M91.985,193.773V183.52c0-3.055-1.487-3.9-3.718-3.9a6.773,6.773,0,0,0-5.088,2.752v11.4h-.893V173.6h.893v7.863a7.394,7.394,0,0,1,5.208-2.661c2.855,0,4.491,1.27,4.491,4.719v10.253Z" transform="translate(-82.286 -173.599)" fill="#df372d"/>
      <path id="Trazado_446" data-name="Trazado 446" d="M91.992,184.631c0-4.236,2.886-7.652,6.753-7.652,4.4,0,6.664,3.6,6.664,7.652v.3H93c.091,3.569,2.381,6.564,6.041,6.564a6.509,6.509,0,0,0,5-2.207l.537.574a7.133,7.133,0,0,1-5.535,2.45C94.878,192.314,91.992,189.078,91.992,184.631Zm6.724-6.835c-3.689,0-5.622,3.448-5.713,6.319h11.455C104.459,181.3,102.644,177.8,98.716,177.8Z" transform="translate(-77.054 -171.777)" fill="#df372d"/>
      <path id="Trazado_447" data-name="Trazado 447" d="M113.068,191.951v-1.785a6.287,6.287,0,0,1-4.968,2.149,4.873,4.873,0,1,1,0-9.741,6.287,6.287,0,0,1,4.968,2.149v-3.3c0-2.359-1.844-3.629-4.045-3.629a5.513,5.513,0,0,0-4.613,2.3l-.683-.6a6.268,6.268,0,0,1,5.3-2.51c2.824,0,4.939,1.451,4.939,4.416v10.557Zm0-2.692v-3.631a5.779,5.779,0,0,0-4.73-2.238,4.059,4.059,0,1,0,0,8.106A5.779,5.779,0,0,0,113.068,189.259Z" transform="translate(-71.082 -171.777)" fill="#df372d"/>
      <path id="Trazado_448" data-name="Trazado 448" d="M113.473,193.773V173.6h.894v20.174Z" transform="translate(-65.474 -173.599)" fill="#df372d"/>
      <path id="Trazado_449" data-name="Trazado 449" d="M118.329,190.651V179.43h-2.381v-.817h2.381V174.62h.893v3.992h2.915v.817h-2.915v11.221c0,1.24.474,2.118,1.547,2.118a2.274,2.274,0,0,0,1.7-.786l.536.7a2.9,2.9,0,0,1-2.232.908C119.1,193.586,118.329,192.467,118.329,190.651Z" transform="translate(-64.14 -173.049)" fill="#df372d"/>
      <path id="Trazado_450" data-name="Trazado 450" d="M132.028,193.773V183.52c0-3.055-1.488-3.9-3.718-3.9a6.773,6.773,0,0,0-5.088,2.752v11.4h-.893V173.6h.893v7.863a7.394,7.394,0,0,1,5.207-2.661c2.857,0,4.493,1.27,4.493,4.719v10.253Z" transform="translate(-60.7 -173.599)" fill="#df372d"/>
      <path id="Trazado_451" data-name="Trazado 451" d="M136.752,189.986l.714-.666a5.518,5.518,0,0,0,4.553,2.178c2.649,0,4.256-1.453,4.256-3.388,0-4.476-9.224-2.147-9.224-7.258,0-2.149,1.785-3.872,4.88-3.872a5.864,5.864,0,0,1,4.939,2.209l-.656.6a5.034,5.034,0,0,0-4.283-1.995c-2.5,0-3.988,1.33-3.988,3.055,0,4.082,9.224,1.722,9.224,7.258,0,2.269-1.667,4.2-5.148,4.2A6.3,6.3,0,0,1,136.752,189.986Z" transform="translate(-52.925 -171.777)" fill="#df372d"/>
      <path id="Trazado_452" data-name="Trazado 452" d="M145.84,184.631c0-4.2,2.618-7.652,6.784-7.652a5.664,5.664,0,0,1,4.908,2.449l-.654.545a4.8,4.8,0,0,0-4.194-2.176c-3.691,0-5.862,3.024-5.862,6.835s2.172,6.866,5.862,6.866a4.832,4.832,0,0,0,4.194-2.207l.654.574a5.666,5.666,0,0,1-4.908,2.45C148.458,192.314,145.84,188.835,145.84,184.631Z" transform="translate(-48.026 -171.777)" fill="#df372d"/>
      <path id="Trazado_453" data-name="Trazado 453" d="M155.6,175.321a.89.89,0,0,1,.862-.877.877.877,0,0,1,0,1.753A.89.89,0,0,1,155.6,175.321Zm.417,18v-14.61h.891v14.61Z" transform="translate(-42.762 -173.144)" fill="#df372d"/>
      <path id="Trazado_454" data-name="Trazado 454" d="M159.277,184.631c0-4.236,2.886-7.652,6.753-7.652,4.4,0,6.666,3.6,6.666,7.652v.3H160.288c.091,3.569,2.381,6.564,6.042,6.564a6.506,6.506,0,0,0,5-2.207l.537.574a7.13,7.13,0,0,1-5.533,2.45C162.163,192.314,159.277,189.078,159.277,184.631ZM166,177.8c-3.689,0-5.622,3.448-5.713,6.319h11.455C171.744,181.3,169.929,177.8,166,177.8Z" transform="translate(-40.782 -171.777)" fill="#df372d"/>
      <path id="Trazado_455" data-name="Trazado 455" d="M180.521,191.951V181.758c0-3.055-1.49-3.962-3.72-3.962a6.767,6.767,0,0,0-5.087,2.752v11.4h-.894v-14.61h.894v2.3a7.39,7.39,0,0,1,5.205-2.661c2.858,0,4.493,1.33,4.493,4.779v10.193Z" transform="translate(-34.559 -171.777)" fill="#df372d"/>
      <path id="Trazado_456" data-name="Trazado 456" d="M180.527,184.631c0-4.2,2.618-7.652,6.784-7.652a5.669,5.669,0,0,1,4.91,2.449l-.654.545a4.8,4.8,0,0,0-4.2-2.176c-3.691,0-5.862,3.024-5.862,6.835s2.172,6.866,5.862,6.866a4.833,4.833,0,0,0,4.2-2.207l.654.574a5.67,5.67,0,0,1-4.91,2.45C183.145,192.314,180.527,188.835,180.527,184.631Z" transform="translate(-29.327 -171.777)" fill="#df372d"/>
      <path id="Trazado_457" data-name="Trazado 457" d="M190.059,184.631c0-4.236,2.884-7.652,6.753-7.652,4.4,0,6.666,3.6,6.666,7.652v.3H191.07c.089,3.569,2.379,6.564,6.041,6.564a6.509,6.509,0,0,0,5-2.207l.536.574a7.13,7.13,0,0,1-5.533,2.45C192.943,192.314,190.059,189.078,190.059,184.631Zm6.723-6.835c-3.689,0-5.622,3.448-5.711,6.319h11.454C202.524,181.3,200.709,177.8,196.782,177.8Z" transform="translate(-24.188 -171.777)" fill="#df372d"/>
    </g>
    <g id="Grupo_109" data-name="Grupo 109" transform="translate(11.038 96.522)">
      <path id="Trazado_458" data-name="Trazado 458" d="M216.957,180.623l-17.729-23.257a32.123,32.123,0,0,0-14.4-60.844H142.487v98.091h20.527v-34.2a33.711,33.711,0,0,1,22.866,13.348L201.8,194.613h25.824ZM187.714,142.3a14.769,14.769,0,0,1-6.376,1.422H163.014V113.584h18.324a15.064,15.064,0,0,1,6.376,28.715Z" transform="translate(59.823 -96.522)" fill="#141f35"/>
      <path id="Trazado_459" data-name="Trazado 459" d="M305.263,194.613H282.9l-23.28-61.534s-.917-2.569-1.031-2.73a3.949,3.949,0,0,0-3.6-2.293,4.025,4.025,0,0,0-3.692,2.455l-.963,2.569h-.023l-23.232,61.534H204.671l32.545-85.042.114-.345.436-1.147.092-.206a18.583,18.583,0,0,1,34.563.825Z" transform="translate(93.345 -96.522)" fill="#141f35"/>
      <path id="Trazado_460" data-name="Trazado 460" d="M163.041,96.522v54.859a43.232,43.232,0,0,1-86.464,0V96.522H97.1v54.951a22.705,22.705,0,0,0,45.41,0V96.522Z" transform="translate(24.293 -96.522)" fill="#141f35"/>
      <circle id="Elipse_17" data-name="Elipse 17" cx="13.507" cy="13.507" r="13.507" transform="translate(334.832 59.438)" fill="#df372d"/>
      <path id="Trazado_461" data-name="Trazado 461" d="M97.386,96.522V194.59a36.038,36.038,0,0,1-20.55-6.812,37.14,37.14,0,0,1-6.787-6.353L31.565,130.97v63.644H11.038V96.59c.711-.046,1.422-.068,2.156-.068a35.865,35.865,0,0,1,18.37,5.022,35.66,35.66,0,0,1,9.587,8.165l35.685,46.763V96.522Z" transform="translate(-11.038 -96.522)" fill="#141f35"/>
    </g>
  </g>
</svg>
