<svg id="facebook-logo-in-circular-button-outlined-social-symbol" xmlns="http://www.w3.org/2000/svg" width="53.266" height="53.266" viewBox="0 0 53.266 53.266">
  <g id="Grupo_17" data-name="Grupo 17">
    <path id="Trazado_107" data-name="Trazado 107" d="M53.266,26.633A26.633,26.633,0,1,0,26.633,53.266,26.633,26.633,0,0,0,53.266,26.633Zm-50.844,0A24.212,24.212,0,1,1,26.633,50.844,24.211,24.211,0,0,1,2.421,26.633Z" fill="#fff"/>
    <path id="Trazado_108" data-name="Trazado 108" d="M232,160.559V145.187h5.072l.8-5.094H232v-2.554c0-1.329.436-2.6,2.344-2.6h3.813v-5.084h-5.414c-4.552,0-5.794,3-5.794,7.152v3.082h-3.123v5.1h3.123v15.372Z" transform="translate(-204.344 -118.554)" fill="#fff"/>
  </g>
</svg>
