<svg id="instagram_3_" data-name="instagram (3)" xmlns="http://www.w3.org/2000/svg" width="48" height="48" viewBox="0 0 48 48">
  <g id="Grupo_19" data-name="Grupo 19">
    <g id="Grupo_18" data-name="Grupo 18">
      <path id="Trazado_109" data-name="Trazado 109" d="M35.031,0H12.969A12.984,12.984,0,0,0,0,12.969V35.031A12.984,12.984,0,0,0,12.969,48H35.031A12.984,12.984,0,0,0,48,35.031V12.969A12.984,12.984,0,0,0,35.031,0Zm9.092,35.031a9.1,9.1,0,0,1-9.092,9.092H12.969a9.1,9.1,0,0,1-9.092-9.092V12.969a9.1,9.1,0,0,1,9.092-9.092H35.031a9.1,9.1,0,0,1,9.092,9.092Z" fill="#fff"/>
    </g>
  </g>
  <g id="Grupo_21" data-name="Grupo 21" transform="translate(13.33 13.141)">
    <g id="Grupo_20" data-name="Grupo 20">
      <path id="Trazado_110" data-name="Trazado 110" d="M163.6,149.356a10.762,10.762,0,1,0-10.67,12.344,10.909,10.909,0,0,0,1.6-.119,10.764,10.764,0,0,0,9.068-12.226Zm-9.637,8.39a6.885,6.885,0,1,1,5.8-7.821A6.839,6.839,0,0,1,153.96,157.746Z" transform="translate(-142.185 -140.171)" fill="#fff"/>
    </g>
  </g>
  <g id="Grupo_23" data-name="Grupo 23" transform="translate(34.194 9.927)">
    <g id="Grupo_22" data-name="Grupo 22">
      <path id="Trazado_111" data-name="Trazado 111" d="M368.051,106.461a1.939,1.939,0,1,0,.568,1.371A1.953,1.953,0,0,0,368.051,106.461Z" transform="translate(-364.741 -105.893)" fill="#fff"/>
    </g>
  </g>
</svg>
