<svg id="linkedin" xmlns="http://www.w3.org/2000/svg" width="31" height="31" viewBox="0 0 31 31">
  <path id="Trazado_6936" data-name="Trazado 6936" d="M28.516,28.791h.008V17.42c0-5.562-1.2-9.846-7.7-9.846a6.75,6.75,0,0,0-6.08,3.342h-.09V8.093H8.489v20.7h6.42V18.542c0-2.7.512-5.307,3.853-5.307,3.292,0,3.342,3.079,3.342,5.481V28.791Z" transform="translate(2.476 2.209)" fill="#fff"/>
  <path id="Trazado_6937" data-name="Trazado 6937" d="M.4,7.977H6.823v20.7H.4Z" transform="translate(0.116 2.327)" fill="#fff"/>
  <path id="Trazado_6938" data-name="Trazado 6938" d="M3.723,0A3.74,3.74,0,1,0,7.445,3.723,3.724,3.724,0,0,0,3.723,0Z" fill="#fff"/>
</svg>
