<svg xmlns="http://www.w3.org/2000/svg" xmlns:xlink="http://www.w3.org/1999/xlink" width="248.933" height="59.788" viewBox="0 0 248.933 59.788">
  <defs>
    <linearGradient id="linear-gradient" x1="3.791" y1="-6.346" x2="-12.556" y2="-404.563" gradientUnits="objectBoundingBox">
      <stop offset="0.245" stop-color="#004f87" stop-opacity="0"/>
      <stop offset="0.291" stop-color="#004f87" stop-opacity="0.188"/>
      <stop offset="0.363" stop-color="#004f87" stop-opacity="0.435"/>
      <stop offset="0.441" stop-color="#004f87" stop-opacity="0.643"/>
      <stop offset="0.524" stop-color="#004f87" stop-opacity="0.8"/>
      <stop offset="0.616" stop-color="#004f87" stop-opacity="0.914"/>
      <stop offset="0.723" stop-color="#004f87" stop-opacity="0.98"/>
      <stop offset="0.882" stop-color="#004f87"/>
    </linearGradient>
    <linearGradient id="linear-gradient-2" x1="0.908" y1="0.851" x2="0.027" y2="-1.291" xlink:href="#linear-gradient"/>
    <linearGradient id="linear-gradient-3" x1="3.791" y1="-6.346" x2="-12.556" y2="-404.563" gradientUnits="objectBoundingBox">
      <stop offset="0.316" stop-color="#0045ab" stop-opacity="0"/>
      <stop offset="0.377" stop-color="#0045ab" stop-opacity="0.137"/>
      <stop offset="0.505" stop-color="#0045ab" stop-opacity="0.494"/>
      <stop offset="0.672" stop-color="#0045ab"/>
    </linearGradient>
    <linearGradient id="linear-gradient-4" x1="0.909" y1="0.853" x2="0.025" y2="-1.297" xlink:href="#linear-gradient-3"/>
    <linearGradient id="linear-gradient-5" y1="0.5" x2="1" y2="0.5" gradientUnits="objectBoundingBox">
      <stop offset="0.052" stop-color="#004f87" stop-opacity="0"/>
      <stop offset="0.131" stop-color="#004f87" stop-opacity="0.165"/>
      <stop offset="0.293" stop-color="#004f87" stop-opacity="0.463"/>
      <stop offset="0.453" stop-color="#004f87" stop-opacity="0.698"/>
      <stop offset="0.607" stop-color="#004f87" stop-opacity="0.867"/>
      <stop offset="0.753" stop-color="#004f87" stop-opacity="0.965"/>
      <stop offset="0.882" stop-color="#004f87"/>
    </linearGradient>
    <linearGradient id="linear-gradient-6" x1="332.397" y1="-123.748" x2="332.763" y2="-124.831" gradientUnits="objectBoundingBox">
      <stop offset="0.19" stop-color="#004f87" stop-opacity="0"/>
      <stop offset="0.224" stop-color="#004f87" stop-opacity="0.098"/>
      <stop offset="0.333" stop-color="#004f87" stop-opacity="0.373"/>
      <stop offset="0.447" stop-color="#004f87" stop-opacity="0.6"/>
      <stop offset="0.565" stop-color="#004f87" stop-opacity="0.776"/>
      <stop offset="0.691" stop-color="#004f87" stop-opacity="0.902"/>
      <stop offset="0.829" stop-color="#004f87" stop-opacity="0.976"/>
      <stop offset="1" stop-color="#004f87"/>
    </linearGradient>
    <linearGradient id="linear-gradient-7" x1="0.422" y1="0.39" x2="1.046" y2="0.859" gradientUnits="objectBoundingBox">
      <stop offset="0.24" stop-color="#004f87"/>
      <stop offset="0.403" stop-color="#004f87" stop-opacity="0.765"/>
      <stop offset="0.757" stop-color="#004f87" stop-opacity="0.173"/>
      <stop offset="0.855" stop-color="#004f87" stop-opacity="0"/>
    </linearGradient>
    <linearGradient id="linear-gradient-8" x1="0.104" y1="1.106" x2="0.812" y2="-0.061" gradientUnits="objectBoundingBox">
      <stop offset="0.098" stop-color="#004f87" stop-opacity="0"/>
      <stop offset="0.154" stop-color="#004f87" stop-opacity="0.188"/>
      <stop offset="0.243" stop-color="#004f87" stop-opacity="0.435"/>
      <stop offset="0.339" stop-color="#004f87" stop-opacity="0.643"/>
      <stop offset="0.441" stop-color="#004f87" stop-opacity="0.8"/>
      <stop offset="0.555" stop-color="#004f87" stop-opacity="0.914"/>
      <stop offset="0.687" stop-color="#004f87" stop-opacity="0.98"/>
      <stop offset="0.882" stop-color="#004f87"/>
    </linearGradient>
    <linearGradient id="linear-gradient-9" x1="0.311" y1="1.006" x2="0.922" y2="-0.047" gradientUnits="objectBoundingBox">
      <stop offset="0.308" stop-color="#004f87" stop-opacity="0"/>
      <stop offset="0.393" stop-color="#004f87" stop-opacity="0.282"/>
      <stop offset="0.5" stop-color="#004f87" stop-opacity="0.592"/>
      <stop offset="0.598" stop-color="#004f87" stop-opacity="0.816"/>
      <stop offset="0.681" stop-color="#004f87" stop-opacity="0.953"/>
      <stop offset="0.74" stop-color="#004f87"/>
    </linearGradient>
  </defs>
  <g id="Grupo_86" data-name="Grupo 86" transform="translate(-11.848 -65.816)">
    <g id="Grupo_84" data-name="Grupo 84">
      <path id="Trazado_249" data-name="Trazado 249" d="M70.139,72.915H78.33V68.137C70.07,68.137,70.139,72.915,70.139,72.915Z" fill="#0045ab"/>
      <path id="Trazado_250" data-name="Trazado 250" d="M129.8,68.135" fill="#161615"/>
      <path id="Trazado_251" data-name="Trazado 251" d="M192.884,72.328h0" fill="none" stroke="#00376e" stroke-linecap="round" stroke-linejoin="round" stroke-width="0"/>
      <path id="Trazado_252" data-name="Trazado 252" d="M192.884,72.328l0,0h0" fill="none" stroke="#00376e" stroke-linecap="round" stroke-linejoin="round" stroke-width="0"/>
      <path id="Trazado_253" data-name="Trazado 253" d="M259.723,74.075a13.985,13.985,0,0,0-2.867-4.3,13.286,13.286,0,0,0-9.522-3.959l-42.047.069V95.092h0s.02,8.191,11.454,8.191c.395,0,.743,0,1.055.007h29.537a13.139,13.139,0,0,0,5.256-1.058,13.353,13.353,0,0,0,7.133-7.133,13.152,13.152,0,0,0,1.058-5.256V79.331A13.159,13.159,0,0,0,259.723,74.075ZM252.59,89.843a5.244,5.244,0,0,1-5.256,5.256H213.478V74.075h33.856a5.244,5.244,0,0,1,5.256,5.256Z" fill="#0045ab"/>
      <g id="Grupo_81" data-name="Grupo 81">
        <path id="Trazado_254" data-name="Trazado 254" d="M238.891,103.279c.43,0,.854-.028,1.273-.07l-2.545.018C238.038,103.263,238.462,103.282,238.891,103.279Z" fill="#001a31"/>
        <path id="Trazado_255" data-name="Trazado 255" d="M251.029,93.4a5.069,5.069,0,0,1-3.709,1.563l-42.045.294h0s.078,8.19,11.512,8.108l23.375-.161A13.737,13.737,0,0,0,252.506,90.3,5.028,5.028,0,0,1,251.029,93.4Z" fill="#001a31"/>
      </g>
      <g id="Grupo_82" data-name="Grupo 82">
        <path id="Trazado_256" data-name="Trazado 256" d="M238.891,103.279c.43,0,.854-.028,1.273-.07l-2.545.018C238.038,103.263,238.462,103.282,238.891,103.279Z" fill="url(#linear-gradient)"/>
        <path id="Trazado_257" data-name="Trazado 257" d="M251.029,93.4a5.069,5.069,0,0,1-3.709,1.563l-42.045.294h0s.078,8.19,11.512,8.108l23.375-.161A13.737,13.737,0,0,0,252.506,90.3,5.028,5.028,0,0,1,251.029,93.4Z" fill="url(#linear-gradient-2)"/>
      </g>
      <g id="Grupo_83" data-name="Grupo 83">
        <path id="Trazado_258" data-name="Trazado 258" d="M238.891,103.279c.43,0,.854-.028,1.273-.07l-2.545.018C238.038,103.263,238.462,103.282,238.891,103.279Z" fill="url(#linear-gradient-3)"/>
        <path id="Trazado_259" data-name="Trazado 259" d="M251.029,93.4a5.069,5.069,0,0,1-3.709,1.563l-42.044.042v.266s.078,8.177,11.512,8.1l23.375-.161A13.737,13.737,0,0,0,252.506,90.3,5.028,5.028,0,0,1,251.029,93.4Z" fill="url(#linear-gradient-4)"/>
      </g>
      <line id="Línea_9" data-name="Línea 9" y1="0.359" x2="0.202" transform="translate(174.654 94.643)" fill="none" stroke="#000" stroke-linecap="round" stroke-linejoin="round" stroke-width="0"/>
      <path id="Trazado_260" data-name="Trazado 260" d="M160.328,95.356l.046.084a3.233,3.233,0,0,0,.45.592" fill="none" stroke="#000" stroke-linecap="round" stroke-linejoin="round" stroke-width="0"/>
      <line id="Línea_10" data-name="Línea 10" x2="0.565" y2="1.007" transform="translate(159.762 94.349)" fill="none" stroke="#000" stroke-linecap="round" stroke-linejoin="round" stroke-width="0"/>
      <path id="Trazado_261" data-name="Trazado 261" d="M159.762,94.349a8.072,8.072,0,0,0,.566,1.007" fill="none" stroke="#000" stroke-linecap="round" stroke-linejoin="round" stroke-width="0"/>
      <path id="Trazado_262" data-name="Trazado 262" d="M160.824,96.032a8.031,8.031,0,0,1-.5-.676" fill="none" stroke="#000" stroke-linecap="round" stroke-linejoin="round" stroke-width="0"/>
      <path id="Trazado_263" data-name="Trazado 263" d="M174.654,95c.07-.118.138-.237.2-.359" fill="none" stroke="#000" stroke-linecap="round" stroke-linejoin="round" stroke-width="0"/>
      <path id="Trazado_264" data-name="Trazado 264" d="M160.824,96.032A8.487,8.487,0,0,0,174.654,95l-2.471,4.4a10.248,10.248,0,0,1-4.13,4.164,11.065,11.065,0,0,1-10.648,0,9.829,9.829,0,0,1-4.061-4.164L134.505,65.885s9.259-.042,13.558,7.618l11.7,20.846" fill="#0045ab"/>
      <path id="Trazado_265" data-name="Trazado 265" d="M108.514,103.29a13.425,13.425,0,0,0,13.373-12.267,5.527,5.527,0,0,0,.127-1.18V74.5c0-6.353,8.191-6.379,8.191-6.379V89.843a13.152,13.152,0,0,1-1.058,5.256,13.353,13.353,0,0,1-7.133,7.133,13.139,13.139,0,0,1-5.256,1.058Z" fill="#0045ab"/>
      <path id="Trazado_266" data-name="Trazado 266" d="M33.876,103.324A13.852,13.852,0,0,1,20.025,89.472c0-.177.007-.352.014-.527v-9.58A5.241,5.241,0,0,1,25.3,74.11H57.889c7.727-.708,9.18-5.625,9.452-7.435v-.756L25.3,65.85a13.286,13.286,0,0,0-9.522,3.959,13.925,13.925,0,0,0-2.867,4.3,13.134,13.134,0,0,0-1.058,5.255V89.877a13.135,13.135,0,0,0,1.058,5.256,13.353,13.353,0,0,0,7.133,7.133,13.132,13.132,0,0,0,5.256,1.058Z" fill="#0045ab"/>
      <path id="Trazado_267" data-name="Trazado 267" d="M192.884,72.328c-.01.164-.019.33-.019.5V103.29h8.191v-21.3c0-7.363-8.14-9.652-8.172-9.661" fill="#0045ab"/>
      <path id="Trazado_268" data-name="Trazado 268" d="M78.311,96.846c.01-.164.019-.329.019-.5V76.4H70.139v10.79c0,7.363,8.14,9.652,8.172,9.662" fill="#0045ab"/>
      <path id="Trazado_269" data-name="Trazado 269" d="M33.876,103.324A13.852,13.852,0,0,1,20.025,89.472c0-.177.007-.352.014-.527v.932A5.243,5.243,0,0,0,25.3,95.133H56.941C67.31,95.626,67.33,103.3,67.33,103.3l.011,0v.02H33.879" fill="#001a31"/>
      <path id="Trazado_270" data-name="Trazado 270" d="M33.876,103.324A13.852,13.852,0,0,1,20.025,89.472c0-.177.007-.352.014-.527v.932A5.243,5.243,0,0,0,25.3,95.133H56.941C67.31,95.626,67.33,103.3,67.33,103.3l.011,0v.02H33.879" fill="url(#linear-gradient-5)"/>
      <path id="Trazado_271" data-name="Trazado 271" d="M70.139,87.186c0,7.363,8.14,9.652,8.172,9.662-.389,6.422-8.172,6.442-8.172,6.442Z" fill="#001a31"/>
      <path id="Trazado_272" data-name="Trazado 272" d="M70.139,87.186c0,7.363,8.14,9.652,8.172,9.662-.389,6.422-8.172,6.442-8.172,6.442Z" fill="url(#linear-gradient-6)"/>
      <path id="Trazado_273" data-name="Trazado 273" d="M96.165,84.587h-.5a5.256,5.256,0,1,0,0,10.512h21.091a5.257,5.257,0,0,0,5.129-4.076,13.425,13.425,0,0,1-13.373,12.267H95.667a13.132,13.132,0,0,1-5.256-1.058A13.353,13.353,0,0,1,83.278,95.1a13.585,13.585,0,0,1,0-10.512,13.353,13.353,0,0,1,7.133-7.133A13.149,13.149,0,0,1,95.667,76.4H117.1a7.473,7.473,0,0,1-.635,2.65c-1.029,2.393-3.729,5.541-10.818,5.541Z" fill="#001a31"/>
      <path id="Trazado_274" data-name="Trazado 274" d="M96.165,84.587h-.5a5.256,5.256,0,1,0,0,10.512h21.091a5.257,5.257,0,0,0,5.129-4.076,13.425,13.425,0,0,1-13.373,12.267H95.667a13.132,13.132,0,0,1-5.256-1.058A13.353,13.353,0,0,1,83.278,95.1a13.585,13.585,0,0,1,0-10.512,13.353,13.353,0,0,1,7.133-7.133A13.149,13.149,0,0,1,95.667,76.4H117.1a7.473,7.473,0,0,1-.635,2.65c-1.029,2.393-3.729,5.541-10.818,5.541Z" fill="url(#linear-gradient-7)"/>
      <path id="Trazado_275" data-name="Trazado 275" d="M174.654,95a8.487,8.487,0,0,1-13.83,1.03,2.665,2.665,0,0,0,1.94.807,2.532,2.532,0,0,0,2.389-1.4l6.541-11.655L177.466,73.5c4.3-7.656,13.556-7.614,13.556-7.614L174.856,94.643" fill="#001a31"/>
      <path id="Trazado_276" data-name="Trazado 276" d="M174.654,95a8.487,8.487,0,0,1-13.83,1.03,2.665,2.665,0,0,0,1.94.807,2.532,2.532,0,0,0,2.389-1.4l6.541-11.655L177.466,73.5c4.3-7.656,13.556-7.614,13.556-7.614L174.856,94.643" fill="url(#linear-gradient-8)"/>
      <path id="Trazado_277" data-name="Trazado 277" d="M201.056,81.988c0-7.363-8.14-9.652-8.172-9.661.389-6.423,8.172-6.442,8.172-6.442Z" fill="#001a31"/>
      <path id="Trazado_278" data-name="Trazado 278" d="M201.056,81.988c0-7.363-8.14-9.652-8.172-9.661.389-6.423,8.172-6.442,8.172-6.442Z" fill="url(#linear-gradient-9)"/>
    </g>
    <g id="Grupo_85" data-name="Grupo 85">
      <path id="Trazado_279" data-name="Trazado 279" d="M24.507,115.045H23.4v-1.119l.436-1.637h.587l-.4,1.5h.478Zm1.733,0H25.134v-1.119l.437-1.637h.587l-.4,1.5h.478Z" fill="#0045ab"/>
      <path id="Trazado_280" data-name="Trazado 280" d="M31.191,114.308H27.317v-.982h8.949v.982H32.392v8.567h-1.2Z" fill="#0045ab"/>
      <path id="Trazado_281" data-name="Trazado 281" d="M37.971,112.917h1.173v3.064a7.325,7.325,0,0,1,2.688-.555,2.631,2.631,0,0,1,2.81,2.4v5.047H43.469v-5.047a1.524,1.524,0,0,0-1.61-1.419,7.246,7.246,0,0,0-2.715.6v5.865H37.971Z" fill="#0045ab"/>
      <path id="Trazado_282" data-name="Trazado 282" d="M50.657,115.426c2.1,0,3.629,1.284,3.629,3.057v.532l-.355.313H47.874a2.762,2.762,0,0,0,2.92,2.647,6.887,6.887,0,0,0,3.237-.948v1.042a7.462,7.462,0,0,1-3.237.888,3.807,3.807,0,0,1-4.093-3.765A3.736,3.736,0,0,1,50.657,115.426Zm2.51,3.057a2.244,2.244,0,0,0-2.51-2.074,2.671,2.671,0,0,0-2.7,2.074Z" fill="#0045ab"/>
      <path id="Trazado_283" data-name="Trazado 283" d="M66.549,122.875v-.467a7.455,7.455,0,0,1-2.687.55c-1.679,0-3.042-.953-3.042-2.128a2.107,2.107,0,0,1,2.346-1.966H64.7l1.852.219v-1.119a1.827,1.827,0,0,0-1.937-1.692,7.322,7.322,0,0,0-2.974.726l-.054-.875a7.42,7.42,0,0,1,2.987-.7c1.74,0,3.152,1.137,3.152,2.538v4.911Zm0-3.11H63.166a1.116,1.116,0,0,0-1.228,1.065c0,.633.862,1.145,1.924,1.145a7.223,7.223,0,0,0,2.687-.564Z" fill="#0045ab"/>
      <path id="Trazado_284" data-name="Trazado 284" d="M70.3,115.509h1.119l.046.576a8.6,8.6,0,0,1,3.719-.659l-.107,1.106a3.929,3.929,0,0,0-.706-.07,7.122,7.122,0,0,0-2.9.647v5.766H70.3Z" fill="#0045ab"/>
      <path id="Trazado_285" data-name="Trazado 285" d="M76.875,113.817l1.174-.164v1.856h3.942v.9H78.049v4.352c0,.67.855,1.214,1.91,1.214a3.515,3.515,0,0,0,2.169-.778v1.119a4.044,4.044,0,0,1-2.169.641c-1.7,0-3.084-.953-3.084-2.128Z" fill="#0045ab"/>
      <path id="Trazado_286" data-name="Trazado 286" d="M92.563,115.426a3.77,3.77,0,1,1-3.956,3.766A3.866,3.866,0,0,1,92.563,115.426Zm0,6.549a2.783,2.783,0,1,0-2.783-2.783A2.784,2.784,0,0,0,92.563,121.975Z" fill="#0045ab"/>
      <path id="Trazado_287" data-name="Trazado 287" d="M99.138,116.859H97.774V116l1.364-.054V114.69c0-1.076,1.032-1.855,2.456-1.855a7.153,7.153,0,0,1,1.773.231v1.024a6.765,6.765,0,0,0-1.8-.273c-.727,0-1.255.366-1.255.873v1.255h2.824v.914h-2.824v6.016H99.138Z" fill="#0045ab"/>
      <path id="Trazado_288" data-name="Trazado 288" d="M109.969,115.509h1.146l.02.363a6.734,6.734,0,0,1,2.245-.446,3.089,3.089,0,0,1,2.061.744,7.482,7.482,0,0,1,2.959-.744,2.566,2.566,0,0,1,2.783,2.265v5.184H120.01v-5.184a1.457,1.457,0,0,0-1.583-1.282,7.133,7.133,0,0,0-2.436.5,1.888,1.888,0,0,1,.172.784v5.184H114.99v-5.184a1.457,1.457,0,0,0-1.583-1.282,7.029,7.029,0,0,0-2.264.433v6.033h-1.174Z" fill="#0045ab"/>
      <path id="Trazado_289" data-name="Trazado 289" d="M128.822,122.875v-.467a7.461,7.461,0,0,1-2.688.55c-1.679,0-3.042-.953-3.042-2.128a2.108,2.108,0,0,1,2.347-1.966h1.531l1.852.219v-1.119a1.828,1.828,0,0,0-1.937-1.692,7.317,7.317,0,0,0-2.974.726l-.055-.875a7.425,7.425,0,0,1,2.988-.7c1.739,0,3.151,1.137,3.151,2.538v4.911Zm0-3.11h-3.383a1.116,1.116,0,0,0-1.228,1.065c0,.633.862,1.145,1.923,1.145a7.232,7.232,0,0,0,2.688-.564Z" fill="#0045ab"/>
      <path id="Trazado_290" data-name="Trazado 290" d="M132.6,112.917h1.174v5.77h1.457l2.826-3.178h1.3l-3.158,3.56,3.308,3.806h-1.391l-2.79-3.206h-1.548v3.206H132.6Z" fill="#0045ab"/>
      <path id="Trazado_291" data-name="Trazado 291" d="M141.208,112.917h1.173v1.2h-1.173Zm0,2.592h1.173v7.366h-1.173Z" fill="#0045ab"/>
      <path id="Trazado_292" data-name="Trazado 292" d="M145.082,115.509h1.132l.037.474a7.327,7.327,0,0,1,2.692-.557,2.541,2.541,0,0,1,2.81,2.4v5.047H150.58v-5.047a1.523,1.523,0,0,0-1.61-1.419,7.251,7.251,0,0,0-2.715.6v5.865h-1.173Z" fill="#0045ab"/>
      <path id="Trazado_293" data-name="Trazado 293" d="M157.755,115.426a7.345,7.345,0,0,1,2.345.422l.029-.339h1.1v7.285c0,1.629-1.433,2.81-3.411,2.81a8.3,8.3,0,0,1-3.137-.737l.054-.985a8.118,8.118,0,0,0,3.11.74,1.994,1.994,0,0,0,2.238-1.828v-.963a3.611,3.611,0,0,1-2.333.853,3.775,3.775,0,0,1-3.956-3.56A3.7,3.7,0,0,1,157.755,115.426Zm0,6.276a2.923,2.923,0,0,0,2.333-1.119v-3.726a7.072,7.072,0,0,0-2.333-.448,2.658,2.658,0,0,0-2.783,2.715A2.688,2.688,0,0,0,157.755,121.7Z" fill="#0045ab"/>
      <path id="Trazado_294" data-name="Trazado 294" d="M168.872,112.917h1.174v9.958h-1.174Z" fill="#0045ab"/>
      <path id="Trazado_295" data-name="Trazado 295" d="M172.774,112.917h1.173v1.2h-1.173Zm0,2.592h1.173v7.366h-1.173Z" fill="#0045ab"/>
      <path id="Trazado_296" data-name="Trazado 296" d="M177.1,116.859h-1.364V116l1.364-.054V114.69c0-1.076,1.031-1.855,2.456-1.855a7.153,7.153,0,0,1,1.773.231v1.024a6.765,6.765,0,0,0-1.8-.273c-.727,0-1.255.366-1.255.873v1.255H181.1v.914h-2.825v6.016H177.1Z" fill="#0045ab"/>
      <path id="Trazado_297" data-name="Trazado 297" d="M186.306,115.426c2.1,0,3.629,1.284,3.629,3.057v.532l-.355.313h-6.057a2.762,2.762,0,0,0,2.92,2.647,6.891,6.891,0,0,0,3.238-.948v1.042a7.466,7.466,0,0,1-3.238.888,3.807,3.807,0,0,1-4.093-3.765A3.736,3.736,0,0,1,186.306,115.426Zm2.511,3.057a2.245,2.245,0,0,0-2.511-2.074,2.669,2.669,0,0,0-2.7,2.074Z" fill="#0045ab"/>
      <path id="Trazado_298" data-name="Trazado 298" d="M197.124,112.917H198.3v2.958a7.147,7.147,0,0,1,2.36-.449,3.708,3.708,0,0,1,3.9,3.766,3.87,3.87,0,0,1-3.956,3.768,7.368,7.368,0,0,1-2.961-.669,1.458,1.458,0,0,0-.518-.07Zm3.479,9.058a2.785,2.785,0,0,0,2.782-2.783,2.664,2.664,0,0,0-2.728-2.783,7.273,7.273,0,0,0-2.36.437v4.691A7.066,7.066,0,0,0,200.6,121.975Z" fill="#0045ab"/>
      <path id="Trazado_299" data-name="Trazado 299" d="M210.165,115.426c2.1,0,3.629,1.284,3.629,3.057v.532l-.355.313h-6.057a2.761,2.761,0,0,0,2.919,2.647,6.891,6.891,0,0,0,3.238-.948v1.042a7.463,7.463,0,0,1-3.238.888,3.807,3.807,0,0,1-4.092-3.765A3.735,3.735,0,0,1,210.165,115.426Zm2.51,3.057a2.244,2.244,0,0,0-2.51-2.074,2.67,2.67,0,0,0-2.7,2.074Z" fill="#0045ab"/>
      <path id="Trazado_300" data-name="Trazado 300" d="M215.949,113.817l1.173-.164v1.856h3.943v.9h-3.943v4.352c0,.67.855,1.214,1.91,1.214a3.515,3.515,0,0,0,2.169-.778v1.119a4.044,4.044,0,0,1-2.169.641c-1.7,0-3.083-.953-3.083-2.128Z" fill="#0045ab"/>
      <path id="Trazado_301" data-name="Trazado 301" d="M223.165,113.817l1.173-.164v1.856h3.943v.9h-3.943v4.352c0,.67.856,1.214,1.91,1.214a3.515,3.515,0,0,0,2.169-.778v1.119a4.041,4.041,0,0,1-2.169.641c-1.7,0-3.083-.953-3.083-2.128Z" fill="#0045ab"/>
      <path id="Trazado_302" data-name="Trazado 302" d="M233.955,115.426c2.1,0,3.63,1.284,3.63,3.057v.532l-.355.313h-6.057a2.761,2.761,0,0,0,2.919,2.647,6.891,6.891,0,0,0,3.238-.948v1.042a7.466,7.466,0,0,1-3.238.888A3.807,3.807,0,0,1,230,119.192,3.736,3.736,0,0,1,233.955,115.426Zm2.511,3.057a2.245,2.245,0,0,0-2.511-2.074,2.669,2.669,0,0,0-2.7,2.074Z" fill="#0045ab"/>
      <path id="Trazado_303" data-name="Trazado 303" d="M239.876,115.509h1.118l.047.576a8.6,8.6,0,0,1,3.719-.659l-.107,1.106a3.947,3.947,0,0,0-.706-.07,7.127,7.127,0,0,0-2.9.647v5.766h-1.173Z" fill="#0045ab"/>
      <path id="Trazado_304" data-name="Trazado 304" d="M245.974,112.071h1.1v1.118l-.436,1.637h-.587l.4-1.5h-.477Zm1.732,0h1.105v1.118l-.436,1.637h-.587l.4-1.5h-.478Z" fill="#0045ab"/>
    </g>
  </g>
</svg>
